<svg xmlns="http://www.w3.org/2000/svg" xmlns:xlink="http://www.w3.org/1999/xlink" version="1.1" x="0px" y="0px" viewBox="0 0 100 125" enable-background="new 0 0 100 100" xml:space="preserve"><path d="M60.955,68.951c2.844,2.621,6.081,5.252,11.585,6.09c1.279,0.196,2.525,0.297,3.705,0.297c0.001,0,0,0,0.001,0  c4.221,0,7.758-1.294,10.228-3.738c1.813-1.792,3.964-4.957,3.915-9.854l-0.002-0.072c-0.468-6.529-4.124-9.502-7.255-11.229  c3.151-1.748,7.329-5.124,7.257-12.133l-0.002-0.064c-0.392-6.117-3.918-10.564-9.68-12.202c-1.441-0.409-2.982-0.617-4.576-0.617  c-4.936,0-9.451,1.975-12.031,3.824c-3.291,2.358-6.023,5.542-8.666,8.621c-0.189,0.221-0.375,0.436-0.562,0.653  c1.319-2.547,2.604-5.25,3.671-8.098c1.282-3.65,2.416-7.664,1.006-13.05c-1.512-5.798-4.513-9.75-8.68-11.431  c-3.356-1.354-7.062-1.258-10.598,0.307l-0.066,0.031c-5.82,3.02-7.096,7.564-7.438,11.125c-2.249-1.725-4.957-3.154-8.367-3.154  c-1.832,0-3.731,0.432-5.647,1.282l-0.057,0.027c-5.461,2.782-8.147,7.782-7.371,13.721c0.813,6.187,5.369,11.479,9.522,13.979  c3.469,2.087,7.473,3.335,11.345,4.542c0.175,0.054,0.345,0.108,0.52,0.163c-2.3-0.219-4.682-0.37-7.093-0.371  c-0.378,0-0.756,0.004-1.159,0.013c-3.865,0.156-8.015,0.586-12.499,3.885c-4.83,3.546-7.396,7.793-7.418,12.287  c-0.015,2.55,0.703,6.308,4.198,9.735l0.054,0.05c2.713,2.352,5.543,3.495,8.651,3.495c0,0,0,0,0.001,0  c1.568,0,3.033-0.292,4.419-0.69c-0.993,3.464-1.565,8.81,3.447,13.718l0.046,0.043c2.65,2.333,5.722,3.566,8.883,3.566  c2.221,0,4.5-0.616,6.59-1.782c5.448-3.039,8.685-9.227,9.474-14.011c0.661-3.995,0.341-8.179,0.031-12.226  c-0.049-0.641-0.097-1.277-0.141-1.904c7.25,14.684,18.827,28.145,36.9,28.145c1.31,0,2.371-1.061,2.371-2.371  c0-1.309-1.062-2.369-2.371-2.369c-15.67,0-25.974-12.059-32.576-25.363C56.457,64.217,58.579,66.668,60.955,68.951z"/><text x="0" y="115" fill="#000000" font-size="5px" font-weight="bold" font-family="'Helvetica Neue', Helvetica, Arial-Unicode, Arial, Sans-serif">Created by corpus delicti</text><text x="0" y="120" fill="#000000" font-size="5px" font-weight="bold" font-family="'Helvetica Neue', Helvetica, Arial-Unicode, Arial, Sans-serif">from the Noun Project</text></svg>